<?xml version="1.0" encoding="UTF-8"?>
<svg id="Capa_1" xmlns="http://www.w3.org/2000/svg" xmlns:xlink="http://www.w3.org/1999/xlink" version="1.1" viewBox="0 0 512 512">
  <!-- Generator: Adobe Illustrator 29.3.1, SVG Export Plug-In . SVG Version: 2.1.0 Build 151)  -->
  <defs>
    <style>
      .st0 {
        fill: #270f0f;
      }
    </style>
  </defs>
  <path class="st0" d="M505,290.8l-.3-.4c-2.4-3.5-2.4-8.1,0-11.6l.3-.5c9.4-13.9,9.3-31.7-.2-45.5-2.4-3.5-2.5-8.1,0-11.6l.3-.4c9.4-13.8,9.3-31.6-.1-45.4l-17-24.8-80.6,36.7c-1.8-21.9-20.2-39.1-42.5-39.1h-218.1c-22.3,0-40.6,17.1-42.5,38.9l-80.1-36.5-17,24.8c-9.4,13.8-9.5,31.6-.1,45.4l.3.4c2.4,3.5,2.4,8.1,0,11.6-9.5,13.8-9.6,31.6-.2,45.5l.3.5c2.4,3.5,2.4,8.1,0,11.6l-.3.4c-9.4,13.7-9.4,31.5,0,45.3l17.1,25.3,80.1-36.5c1.9,21.8,20.2,38.9,42.5,38.9h218.1c22.3,0,40.7-17.3,42.5-39.1l80.6,36.7,17.1-25.3c9.3-13.8,9.3-31.6,0-45.3ZM104.1,292l-69.3,31.6-2.9-4.3c-2.4-3.5-2.4-8.1,0-11.6l.3-.4c9.4-13.7,9.4-31.5,0-45.3l-.3-.5c-2.4-3.5-2.4-8.1,0-11.6,9.5-13.8,9.6-31.6.2-45.5l-.3-.4c-2.4-3.5-2.4-8.1,0-11.6l2.8-4.1,69.4,31.6v72.1ZM146.7,333.8c-7,0-12.7-5.7-12.7-12.7v-130.3c0-7,5.7-12.7,12.7-12.7h100.1l-91.8,155.6h-8.2ZM189.8,333.8l91.8-155.6h40.6l-91.8,155.6h-40.6ZM377.4,321.2c0,7-5.7,12.7-12.7,12.7h-99.5l91.8-155.6h7.7c7,0,12.7,5.7,12.7,12.7v130.3h0ZM480.2,319.3l-2.9,4.3-69.8-31.8v-71.6l69.9-31.8,2.8,4.1c2.4,3.5,2.4,8.1,0,11.6l-.3.4c-9.4,13.9-9.3,31.7.2,45.5,2.4,3.5,2.5,8.1,0,11.6l-.3.5c-9.3,13.8-9.3,31.6,0,45.3l.3.4c2.4,3.5,2.4,8.1,0,11.6Z"/>
</svg>