<?xml version="1.0" encoding="UTF-8"?>
<svg id="Layer_1" xmlns="http://www.w3.org/2000/svg" version="1.1" viewBox="0 0 1080 415.6">
  <!-- Generator: Adobe Illustrator 29.3.1, SVG Export Plug-In . SVG Version: 2.1.0 Build 151)  -->
  <path d="M16.6,71.5c3.3-.3,5.5-.7,6.8-1.2,1.2-.6,2.1-1.6,2.4-3,.4-1.5.6-4.1.6-7.8V16.8c-5.6.2-9.3.5-11.3.9-2,.4-3.3,1.4-4.1,2.8-.7,1.5-1.4,4.3-2,8.6l-4.6.4c.8-6.2,1.3-11.9,1.5-16.9l.9-.8,8.1,1.1h30.4l8.3-1.1.9.8c.2,5.4.7,10.9,1.5,16.6l-4.6.4c-.7-4.3-1.4-7.2-2.2-8.7-.7-1.5-2-2.5-3.8-2.9-1.8-.5-5.4-.8-10.6-1.1-.4,3.9-.8,10.8-1.1,20.8-.3,9.9-.5,18.9-.5,26.8s.4,4.1,1.3,5.1c.8,1,2.3,1.5,4.3,1.5s3.8,0,5.4-.3l.3.4-.9,4.5h-3.2c0,0-11.2-.3-11.2-.3-3.6,0-8.1.1-13.4.4l.8-4.2Z"/>
  <path d="M58,36.1c-.5,0-.9,0-1.5.1-.5,0-.8.2-1,.2l.4-3.6c2.5-.4,5.3-.9,8.2-1.6s4.9-1.1,5.8-1.3l.6,1.2c-.7,1.7-1.2,5.6-1.8,11.6-.5,6-.8,11.8-.8,17.5s2.6,9.6,7.8,9.6,3.8-.5,5.5-1.4c1.7-.9,3.8-2.3,6.4-4.2v-22.7c0-2-.4-3.3-1.1-4.1-.7-.8-2-1.2-3.8-1.2h-2.4c0,0,.4-3.4.4-3.4,2.9-.4,5.9-.9,9-1.6,3.1-.7,5.2-1.1,6.1-1.3l.6,1.2c-.6,1.5-1.1,5.6-1.5,12.2-.4,6.7-.6,13.9-.6,21.7s.4,2.5,1.1,3.3c.7.8,1.7,1.2,2.9,1.2s1.8-.2,2.7-.5c.9-.4,1.6-.7,2.2-1.1.6-.4.9-.7,1-.8l1.4,1.6c-.3.4-.9,1.2-1.8,2.4-.9,1.2-2.1,2.4-3.3,3.6-1.3,1.2-2.4,1.8-3.4,1.8-5.3,0-8.2-2.6-8.7-7.9l-.5-.2c-3.1,2.4-6,4.4-8.5,5.9-2.5,1.5-4.2,2.3-5.1,2.3-4.2,0-7.4-1-9.6-2.9-2.3-2-3.4-4.8-3.4-8.4l.4-23.8c0-3.5-1.2-5.3-3.6-5.3Z"/>
  <path d="M114.2,69.9c.7-1.1,1-3.1,1-6.2v-21.5c0-2.2-.3-3.7-.9-4.6-.6-.9-1.5-1.4-2.8-1.4s-1,0-1.3,0c-.4,0-.6.1-.7.2l-.5-.7.3-3c2.5-.5,5.1-1,7.9-1.7,2.8-.7,4.6-1.1,5.3-1.3l.7.6c-.1.6-.3,1.9-.6,4.1-.3,2.1-.4,4.1-.3,6l.4.3c2-3.1,4.3-5.6,6.9-7.5,2.6-2,4.9-2.9,6.9-2.9s1.6,0,2.1.1c.5,0,.8.2.9.2l.3.4c-.1.9-.4,2.9-.8,5.8-.4,3-.7,5.7-.7,8.2l-3.8.3c0-2.7-.2-4.5-.5-5.3-.4-.9-1.1-1.3-2.1-1.3s-3,.6-4.6,1.8c-1.6,1.2-3.1,2.8-4.5,4.8,0,1.9-.2,5-.4,9.4-.2,4.4-.3,7.9-.4,10.6,0,2.2.3,3.7,1,4.5.7.8,1.9,1.2,3.7,1.2s1.7,0,2.5,0c.8,0,1.4,0,1.8,0v.4c0,0-.8,4.3-.8,4.3-.7,0-2,0-3.9,0-2,0-4,0-6.1,0s-4.6,0-6.6.1c-2,0-3.2.2-3.7.2l.5-3.9c2-.2,3.3-.8,3.9-1.9Z"/>
  <path d="M177,70.2c.8-1,1.3-2.4,1.3-4.1l.4-19.4c0-3.3-.7-5.8-2.1-7.5-1.4-1.8-3.4-2.6-6-2.6s-4.2.5-6.4,1.6c-2.2,1.1-4,2.2-5.7,3.5-.6,13.5-.9,21.5-.9,24.1s.3,3.4.8,4.3c.5.8,1.4,1.2,2.7,1.2s1.4,0,2.1,0c.7,0,1.1,0,1.4,0l.2.4-.9,4.2c-.6,0-1.7-.1-3.4-.2-1.7,0-3.5,0-5.5,0s-3.6,0-5.6.2c-2.1.2-3.4.3-4.1.3l.5-4c1.9-.3,3.2-.9,4-1.8.8-.8,1.2-2.2,1.2-4v-23.9c0-2.2-.4-3.8-1.1-4.7-.7-.9-2-1.3-3.7-1.3h-1.1l-.3-.4.3-3.2c2.8-.5,5.6-1,8.4-1.6,2.8-.6,4.6-1,5.3-1.2l.6.8c-.1.4-.3,1.2-.6,2.5-.3,1.3-.4,2.6-.5,4l.2.3c7.4-5,12.2-7.4,14.4-7.4,4.1,0,7.4,1.1,9.8,3.4,2.4,2.3,3.6,5.4,3.6,9.2s-.2,3.7-.6,9c-.5,6.8-.8,11.5-.8,14.2s.3,3.3.8,4.2c.5.9,1.4,1.3,2.6,1.3s1.4,0,2.1,0c.7,0,1.1,0,1.4,0l.2.4-.8,4.2c-.6,0-1.7-.1-3.3-.2-1.6,0-3.4,0-5.4,0s-3.6.2-5.8.5c-2.2.3-3.6.6-4.3.7l.4-4c2-.5,3.4-1.3,4.2-2.3Z"/>
  <path d="M212.3,96.7c-1.2-1.5-1.8-2.6-1.8-3.3l.5-.7c3.7,0,7.1-1.5,10.2-4.6,3.2-3,5.9-7.3,8.2-12.8-5-15.9-9.1-27.9-12.1-36-.6-1.6-1.4-2.8-2.5-3.5-1.1-.7-2.5-1.1-4.2-1.2l-.2-.4.6-3.2h8.1c2.4,0,4.8,0,7.2-.2,2.4-.2,3.9-.3,4.6-.4l.2.5-.6,3c-2.2,0-3.7.3-4.5.6-.8.4-1.1,1-1.1,1.9s.6,3.8,1.9,8.1c1.3,4.4,2.6,8.7,4,13.1,1.4,4.3,2.3,7.2,2.7,8.5h.4c7.5-18,11.3-27.7,11.3-29.3s-1.2-2.5-3.7-2.5h-4.5l-.2-.4.6-3.2c.6,0,1.9.1,3.9.2,2,0,4,.1,6.1.1h8.3c0,0-.7,3.5-.7,3.5-1.4.3-2.5.8-3.3,1.5s-1.5,2.1-2.2,4.1l-12.4,29.8c-3.4,8.2-6.2,14.3-8.3,18.3-2.2,4-4.3,6.8-6.4,8.4-2.1,1.6-4.6,2.4-7.5,2.3-.5,0-1.4-.8-2.5-2.3Z"/>
  <path d="M264.8,73.8c-2.9-1.8-5.1-4.4-6.7-7.7-1.6-3.3-2.4-7.1-2.4-11.3s1-8.8,3-12.6c2-3.8,4.7-6.8,8.2-9,3.5-2.2,7.3-3.3,11.6-3.3s6.9.9,9.8,2.7c2.9,1.8,5.2,4.4,6.8,7.7,1.6,3.3,2.4,7.1,2.4,11.3s-1,8.8-3,12.6c-2,3.8-4.7,6.8-8.2,9-3.5,2.2-7.3,3.3-11.6,3.3s-7-.9-9.9-2.7ZM286.1,67.3c2.2-3,3.2-7,3.2-12.1s-.6-7.3-1.8-10.3-2.8-5.4-4.9-7.1c-2.1-1.7-4.5-2.5-7.2-2.5s-6.6,1.5-8.7,4.5c-2.2,3-3.2,7.1-3.2,12.2s.6,7.3,1.8,10.3c1.2,3,2.8,5.3,4.9,7,2.1,1.7,4.5,2.5,7.2,2.5s6.6-1.5,8.7-4.5Z"/>
  <path d="M304.8,36.1c-.5,0-.9,0-1.5.1-.5,0-.8.2-1,.2l.4-3.6c2.5-.4,5.3-.9,8.2-1.6s4.9-1.1,5.8-1.3l.6,1.2c-.7,1.7-1.2,5.6-1.8,11.6-.5,6-.8,11.8-.8,17.5s2.6,9.6,7.8,9.6,3.8-.5,5.5-1.4c1.7-.9,3.8-2.3,6.4-4.2v-22.7c0-2-.4-3.3-1.1-4.1-.7-.8-2-1.2-3.8-1.2h-2.4c0,0,.4-3.4.4-3.4,2.9-.4,5.9-.9,9-1.6,3.1-.7,5.2-1.1,6.1-1.3l.6,1.2c-.6,1.5-1.1,5.6-1.5,12.2-.4,6.7-.6,13.9-.6,21.7s.4,2.5,1.1,3.3c.7.8,1.7,1.2,2.9,1.2s1.8-.2,2.7-.5c.9-.4,1.6-.7,2.2-1.1.6-.4.9-.7,1-.8l1.4,1.6c-.3.4-.9,1.2-1.8,2.4-.9,1.2-2.1,2.4-3.3,3.6-1.3,1.2-2.4,1.8-3.4,1.8-5.3,0-8.2-2.6-8.7-7.9l-.5-.2c-3.1,2.4-6,4.4-8.5,5.9-2.5,1.5-4.2,2.3-5.1,2.3-4.2,0-7.4-1-9.6-2.9-2.3-2-3.4-4.8-3.4-8.4l.4-23.8c0-3.5-1.2-5.3-3.6-5.3Z"/>
  <path d="M361,69.9c.7-1.1,1-3.1,1-6.2v-21.5c0-2.2-.3-3.7-.9-4.6-.6-.9-1.5-1.4-2.8-1.4s-1,0-1.3,0c-.4,0-.6.1-.7.2l-.5-.7.3-3c2.5-.5,5.1-1,7.9-1.7,2.8-.7,4.6-1.1,5.3-1.3l.7.6c-.1.6-.3,1.9-.6,4.1-.3,2.1-.4,4.1-.3,6l.4.3c2-3.1,4.3-5.6,6.9-7.5,2.6-2,4.9-2.9,6.9-2.9s1.6,0,2.1.1c.5,0,.8.2.9.2l.3.4c-.1.9-.4,2.9-.8,5.8-.4,3-.7,5.7-.7,8.2l-3.8.3c0-2.7-.2-4.5-.5-5.3-.4-.9-1.1-1.3-2.1-1.3s-3,.6-4.6,1.8c-1.6,1.2-3.1,2.8-4.5,4.8,0,1.9-.2,5-.4,9.4-.2,4.4-.3,7.9-.4,10.6,0,2.2.3,3.7,1,4.5.7.8,1.9,1.2,3.7,1.2s1.7,0,2.5,0c.8,0,1.4,0,1.8,0v.4c0,0-.8,4.3-.8,4.3-.7,0-2,0-3.9,0-2,0-4,0-6.1,0s-4.6,0-6.6.1c-2,0-3.2.2-3.7.2l.5-3.9c2-.2,3.3-.8,3.9-1.9Z"/>
  <path d="M410.6,94.7c1.4-.2,2.5-.5,3.2-.9s1.2-1,1.4-2c.3-.9.4-2.3.4-4.2,0-2.7,0-5.1,0-7.1v-9.2c0,0,0-29.2,0-29.2,0-2.2-.4-3.8-1.1-4.7-.7-.9-2-1.3-3.7-1.3h-1.1l-.3-.4.3-3.2c2.8-.5,5.6-1,8.4-1.6,2.8-.6,4.6-1,5.3-1.2l.6.8c0,.3-.2,1-.4,2.1-.2,1.1-.4,2.1-.5,3.2l.4.7c6.1-4.2,9.9-6.4,11.4-6.4,3.7,0,7,.9,9.9,2.6,2.9,1.7,5.1,4.2,6.7,7.3,1.6,3.1,2.4,6.7,2.4,10.8s-1.1,8.9-3.3,12.8c-2.2,3.9-5.2,7-8.9,9.4-3.7,2.3-7.8,3.5-12.1,3.5s-2.9,0-4.3-.1c-1.4,0-2.4-.2-2.9-.2v10.1c0,3,.4,5,1,6.1.6,1.1,1.8,1.6,3.7,1.6h3.3c0,0,.2.2.2.2l-.8,3.7h-9.3c-2.4,0-4.5,0-6.5.3-2,.2-3.3.3-3.9.4l.5-3.8ZM442.6,66.7c2.5-3,3.8-7,3.8-12.2s-.6-6.2-1.7-8.9c-1.1-2.7-2.7-4.8-4.7-6.4-2-1.6-4.2-2.4-6.5-2.4s-2.9.4-4.8,1.3c-1.9.9-3.7,2-5.4,3.5-.5,8.6-.8,17.8-.8,27.6,1.3.5,2.9,1,4.7,1.3,1.8.4,3.5.5,5.1.5,4.4,0,7.8-1.5,10.3-4.5Z"/>
  <path d="M463.5,70.1c.8-.8,1.1-2.1,1.1-3.9V14c0-1.8-.3-3.1-.9-3.9-.6-.8-1.5-1.2-2.7-1.2h-2.1l-.4-.3.4-3.1c2.2-.3,4.7-.7,7.5-1.2,2.8-.6,5.1-1.1,7-1.6l.6,1.3c-.5.7-.9,4.2-1.3,10.5-.4,6.3-.8,14-1,23.1,7.4-5.1,12.3-7.6,14.7-7.6,4.2,0,7.5,1.1,9.9,3.3,2.4,2.2,3.5,5.3,3.5,9.3s-.2,4.3-.7,9c-.6,7.6-.9,12.4-.9,14.2s.3,3.3.8,4.2c.5.9,1.4,1.3,2.6,1.3l3.4-.2.2.4-.8,4.2c-4.3-.2-7.2-.3-8.7-.3-2.6,0-6,.4-10.1,1.2l.4-4c2-.5,3.4-1.3,4.2-2.3.8-1,1.3-2.4,1.3-4.1l.6-19.4c0-3.3-.7-5.8-2.1-7.5-1.4-1.8-3.4-2.6-6-2.6s-3.6.5-6,1.6c-2.4,1-4.5,2.3-6.4,3.8-.2,7.3-.3,15.2-.3,23.8s.3,3.4.8,4.3c.5.8,1.4,1.2,2.7,1.2l3.4-.2.2.4-.9,4.2c-4.5-.2-7.5-.3-8.9-.3-2.8,0-6,0-9.7.2l.6-4c1.9-.2,3.2-.7,4-1.5Z"/>
  <path d="M519.8,73.8c-2.9-1.8-5.1-4.4-6.7-7.7-1.6-3.3-2.4-7.1-2.4-11.3s1-8.8,3-12.6c2-3.8,4.7-6.8,8.2-9,3.5-2.2,7.3-3.3,11.6-3.3s6.9.9,9.8,2.7c2.9,1.8,5.2,4.4,6.8,7.7,1.6,3.3,2.4,7.1,2.4,11.3s-1,8.8-3,12.6c-2,3.8-4.7,6.8-8.2,9-3.5,2.2-7.3,3.3-11.6,3.3s-7-.9-9.9-2.7ZM541.1,67.3c2.2-3,3.2-7,3.2-12.1s-.6-7.3-1.8-10.3-2.8-5.4-4.9-7.1c-2.1-1.7-4.5-2.5-7.2-2.5s-6.6,1.5-8.7,4.5c-2.2,3-3.2,7.1-3.2,12.2s.6,7.3,1.8,10.3c1.2,3,2.8,5.3,4.9,7,2.1,1.7,4.5,2.5,7.2,2.5s6.6-1.5,8.7-4.5Z"/>
  <path d="M590.9,70.2c.8-1,1.3-2.4,1.3-4.1l.4-19.4c0-3.3-.7-5.8-2.1-7.5-1.4-1.8-3.4-2.6-6-2.6s-4.2.5-6.4,1.6c-2.2,1.1-4,2.2-5.7,3.5-.6,13.5-.9,21.5-.9,24.1s.3,3.4.8,4.3c.5.8,1.4,1.2,2.7,1.2s1.4,0,2.1,0c.7,0,1.1,0,1.4,0l.2.4-.9,4.2c-.6,0-1.7-.1-3.4-.2-1.7,0-3.5,0-5.5,0s-3.6,0-5.6.2c-2.1.2-3.4.3-4.1.3l.5-4c1.9-.3,3.2-.9,4-1.8.8-.8,1.2-2.2,1.2-4v-23.9c0-2.2-.4-3.8-1.1-4.7-.7-.9-2-1.3-3.7-1.3h-1.1l-.3-.4.3-3.2c2.8-.5,5.6-1,8.4-1.6,2.8-.6,4.6-1,5.3-1.2l.6.8c-.1.4-.3,1.2-.6,2.5-.3,1.3-.4,2.6-.5,4l.2.3c7.4-5,12.2-7.4,14.4-7.4,4.1,0,7.4,1.1,9.8,3.4,2.4,2.3,3.6,5.4,3.6,9.2s-.2,3.7-.6,9c-.5,6.8-.8,11.5-.8,14.2s.3,3.3.8,4.2c.5.9,1.4,1.3,2.6,1.3s1.4,0,2.1,0c.7,0,1.1,0,1.4,0l.2.4-.8,4.2c-.6,0-1.7-.1-3.3-.2-1.6,0-3.4,0-5.4,0s-3.6.2-5.8.5c-2.2.3-3.6.6-4.3.7l.4-4c2-.5,3.4-1.3,4.2-2.3Z"/>
  <path d="M620.4,73.8c-3.1-1.8-5.6-4.3-7.2-7.6-1.7-3.3-2.5-7.1-2.5-11.3s1-8.5,3-12.3c2-3.9,4.7-6.9,8-9.2,3.3-2.3,6.9-3.4,10.7-3.4s8.4,1.2,10.9,3.6c2.5,2.4,3.7,5.9,3.7,10.6s-.2,3.5-.6,4.8l-1.3,1.2h-27c0,6.3,1.2,11.2,3.8,14.6,2.6,3.4,6.2,5.1,10.8,5.1s7.6-1,11.9-3l.6.2,1.1,2.8c-2.4,1.7-4.9,3.2-7.8,4.6s-5.2,2.1-7.2,2.1c-4,0-7.6-.9-10.8-2.7ZM636,45.6c1-.1,1.6-.4,2-.7.3-.3.5-1,.5-2,0-2.6-.7-4.6-2.1-6-1.4-1.4-3.4-2.1-6-2.1s-5.7,1-7.9,3.1c-2.2,2.1-3.6,4.9-4.2,8.4l17.7-.9Z"/>
  <path d="M680.4,73.8c-2.9-1.8-5.1-4.4-6.7-7.7-1.6-3.3-2.4-7.1-2.4-11.3s1-8.8,3-12.6c2-3.8,4.7-6.8,8.2-9,3.5-2.2,7.3-3.3,11.6-3.3s6.9.9,9.8,2.7c2.9,1.8,5.2,4.4,6.8,7.7,1.6,3.3,2.4,7.1,2.4,11.3s-1,8.8-3,12.6c-2,3.8-4.7,6.8-8.2,9-3.5,2.2-7.3,3.3-11.6,3.3s-7-.9-9.9-2.7ZM701.7,67.3c2.2-3,3.2-7,3.2-12.1s-.6-7.3-1.8-10.3-2.8-5.4-4.9-7.1c-2.1-1.7-4.5-2.5-7.2-2.5s-6.6,1.5-8.7,4.5c-2.2,3-3.2,7.1-3.2,12.2s.6,7.3,1.8,10.3c1.2,3,2.8,5.3,4.9,7,2.1,1.7,4.5,2.5,7.2,2.5s6.6-1.5,8.7-4.5Z"/>
  <path d="M751.5,70.2c.8-1,1.3-2.4,1.3-4.1l.4-19.4c0-3.3-.7-5.8-2.1-7.5-1.4-1.8-3.4-2.6-6-2.6s-4.2.5-6.4,1.6c-2.2,1.1-4,2.2-5.7,3.5-.6,13.5-.9,21.5-.9,24.1s.3,3.4.8,4.3c.5.8,1.4,1.2,2.7,1.2s1.4,0,2.1,0c.7,0,1.1,0,1.4,0l.2.4-.9,4.2c-.6,0-1.7-.1-3.4-.2-1.7,0-3.5,0-5.5,0s-3.6,0-5.6.2c-2.1.2-3.4.3-4.1.3l.5-4c1.9-.3,3.2-.9,4-1.8.8-.8,1.2-2.2,1.2-4v-23.9c0-2.2-.4-3.8-1.1-4.7-.7-.9-2-1.3-3.7-1.3h-1.1l-.3-.4.3-3.2c2.8-.5,5.6-1,8.4-1.6,2.8-.6,4.6-1,5.3-1.2l.6.8c-.1.4-.3,1.2-.6,2.5-.3,1.3-.4,2.6-.5,4l.2.3c7.4-5,12.2-7.4,14.4-7.4,4.1,0,7.4,1.1,9.8,3.4,2.4,2.3,3.6,5.4,3.6,9.2s-.2,3.7-.6,9c-.5,6.8-.8,11.5-.8,14.2s.3,3.3.8,4.2c.5.9,1.4,1.3,2.6,1.3s1.4,0,2.1,0c.7,0,1.1,0,1.4,0l.2.4-.8,4.2c-.6,0-1.7-.1-3.3-.2-1.6,0-3.4,0-5.4,0s-3.6.2-5.8.5c-2.2.3-3.6.6-4.3.7l.4-4c2-.5,3.4-1.3,4.2-2.3Z"/>
  <path d="M790.5,72.5c2-.5,3.4-1.3,4.2-2.3.8-1,1.3-2.4,1.3-4.1v-24.9c0-3.5-1.2-5.3-3.6-5.3s-.9,0-1.5.1c-.5,0-.8.2-1,.2l.4-3.6c2.7-.4,5.6-.9,8.5-1.6,2.9-.7,4.8-1.1,5.6-1.3l.5,1.2c-.6,1.4-1.1,5.6-1.6,12.6-.5,7-.7,14.4-.7,22.1s.3,3.3.8,4.2,1.4,1.3,2.6,1.3,1.4,0,2.1,0c.7,0,1.1,0,1.4,0l.2.4-.8,4.2c-.6,0-1.7-.1-3.3-.2-1.6,0-3.4,0-5.4,0s-3.6.2-5.8.5c-2.2.3-3.6.6-4.3.7l.4-4ZM795.2,16.9c-.8-1-1.3-2.2-1.3-3.5s.6-2.9,1.7-4.1c1.1-1.1,2.5-1.7,4.1-1.7s2.7.5,3.5,1.5c.8,1,1.3,2.2,1.3,3.5s-.6,2.9-1.7,4.1c-1.1,1.1-2.5,1.7-4.1,1.7s-2.7-.5-3.5-1.5Z"/>
  <path d="M822.9,73.8c-1.8-1.8-2.7-4.8-2.7-9.2v-24.1c0-1.8-.4-3-1.2-3.7-.8-.7-2.3-1.1-4.4-1.2l-.4-.6.5-2.9c1.9-.9,3.7-2,5.5-3.4,1.8-1.3,3.3-2.5,4.4-3.5,1.1-1,1.9-1.7,2.2-2l2,.8c0,.3-.2,1.1-.3,2.4-.1,1.2-.3,2.9-.5,5l14.4-.3.3.3-.9,5.2-14.2-.3c-.5,7.2-.7,15.3-.7,24.5s.6,5.7,1.7,7.1c1.1,1.4,3.1,2.1,5.9,2.1s2-.1,2.9-.4c1-.3,1.8-.5,2.4-.8s1.1-.5,1.3-.5l1,2.5c-.4.3-1.2.9-2.5,1.9-1.3.9-2.6,1.8-4.1,2.7-1.5.9-2.6,1.3-3.3,1.3-4.4,0-7.6-.9-9.4-2.7Z"/>
  <path d="M854.2,76.1c-1.7-.3-3.1-.6-4.1-.9-1-.3-1.6-.6-1.9-.7l-.3-.7c.2-1,.4-3,.7-6.1.3-3.1.4-5.4.5-7.1l3.4-.5c0,4.3.7,7.3,2.2,9.1,1.4,1.8,3.9,2.6,7.3,2.6s4.6-.6,6.3-1.7c1.7-1.1,2.5-2.5,2.5-4.1s-.8-3.1-2.3-4.5c-1.5-1.3-4.6-3.2-9.1-5.6-3.7-1.9-6.4-3.8-8.1-5.8s-2.5-4.1-2.5-6.5.8-5,2.4-7.1c1.6-2.1,3.7-3.8,6.5-5,2.7-1.2,5.8-1.8,9.2-1.8s3.1.1,4.5.3c1.4.2,2.6.5,3.5.7.9.3,1.5.4,1.8.5l.2.5c-.1.7-.4,2.1-.9,4.5-.5,2.3-.8,4.8-1,7.5l-3.6.3c0-.2,0-.6,0-1.2,0-.6,0-1.1,0-1.7,0-2.4-.6-4.1-1.9-5.1s-3.3-1.6-6.1-1.6-4.1.5-5.6,1.6c-1.5,1-2.3,2.3-2.3,3.8s.7,3,2,4.4c1.3,1.4,3.5,2.8,6.5,4.4,5.3,2.8,8.9,5.2,10.8,7.1,1.9,1.9,2.9,4.1,2.9,6.6s-.8,4.8-2.4,7c-1.6,2.2-3.8,3.9-6.6,5.1-2.8,1.3-5.7,1.9-8.9,1.9s-4-.1-5.7-.4Z"/>
  <path d="M910.4,76.1c-1.7-.3-3.1-.6-4.1-.9-1-.3-1.6-.6-1.9-.7l-.3-.7c.2-1,.4-3,.7-6.1.3-3.1.4-5.4.5-7.1l3.4-.5c0,4.3.7,7.3,2.2,9.1,1.4,1.8,3.9,2.6,7.3,2.6s4.6-.6,6.3-1.7c1.7-1.1,2.5-2.5,2.5-4.1s-.8-3.1-2.3-4.5c-1.5-1.3-4.6-3.2-9.1-5.6-3.7-1.9-6.4-3.8-8.1-5.8s-2.5-4.1-2.5-6.5.8-5,2.4-7.1c1.6-2.1,3.7-3.8,6.5-5,2.7-1.2,5.8-1.8,9.2-1.8s3.1.1,4.5.3c1.4.2,2.6.5,3.5.7.9.3,1.5.4,1.8.5l.2.5c-.1.7-.4,2.1-.9,4.5-.5,2.3-.8,4.8-1,7.5l-3.6.3c0-.2,0-.6,0-1.2,0-.6,0-1.1,0-1.7,0-2.4-.6-4.1-1.9-5.1s-3.3-1.6-6.1-1.6-4.1.5-5.6,1.6c-1.5,1-2.3,2.3-2.3,3.8s.7,3,2,4.4c1.3,1.4,3.5,2.8,6.5,4.4,5.3,2.8,8.9,5.2,10.8,7.1,1.9,1.9,2.9,4.1,2.9,6.6s-.8,4.8-2.4,7c-1.6,2.2-3.8,3.9-6.6,5.1-2.8,1.3-5.7,1.9-8.9,1.9s-4-.1-5.7-.4Z"/>
  <path d="M942.2,72.5c2-.5,3.4-1.3,4.2-2.3.8-1,1.3-2.4,1.3-4.1v-24.9c0-3.5-1.2-5.3-3.6-5.3s-.9,0-1.5.1c-.5,0-.8.2-1,.2l.4-3.6c2.7-.4,5.6-.9,8.5-1.6,2.9-.7,4.8-1.1,5.6-1.3l.5,1.2c-.6,1.4-1.1,5.6-1.6,12.6-.5,7-.7,14.4-.7,22.1s.3,3.3.8,4.2,1.4,1.3,2.6,1.3,1.4,0,2.1,0c.7,0,1.1,0,1.4,0l.2.4-.8,4.2c-.6,0-1.7-.1-3.3-.2-1.6,0-3.4,0-5.4,0s-3.6.2-5.8.5c-2.2.3-3.6.6-4.3.7l.4-4ZM946.9,16.9c-.8-1-1.3-2.2-1.3-3.5s.6-2.9,1.7-4.1c1.1-1.1,2.5-1.7,4.1-1.7s2.7.5,3.5,1.5c.8,1,1.3,2.2,1.3,3.5s-.6,2.9-1.7,4.1c-1.1,1.1-2.5,1.7-4.1,1.7s-2.7-.5-3.5-1.5Z"/>
  <path d="M999.2,69.6l-.7-.3c-6.8,4.6-10.9,7-12.2,7-3.7,0-7-.9-9.9-2.6-2.9-1.7-5.1-4.2-6.7-7.3-1.6-3.1-2.4-6.7-2.4-10.8s1.1-8.9,3.3-12.8c2.2-3.9,5.2-7,8.9-9.4,3.8-2.3,7.8-3.5,12.2-3.5s4.3.1,6.8.4V14c0-3.5-1.2-5.3-3.6-5.3s-.9,0-1.5.1c-.5,0-.8.2-1,.2l.4-3.6c2.8-.4,5.7-.9,8.7-1.6,3-.7,4.9-1.1,5.8-1.3l.6,1.3c-.7,1.1-1.4,8-1.9,20.7-.6,12.7-.8,26.1-.8,40.4s.4,2.5,1.1,3.3c.7.8,1.7,1.2,2.9,1.2s1.8-.2,2.7-.5c.9-.4,1.6-.7,2.2-1.1s.9-.7,1-.8l1.4,1.6c-.2.3-.7,1-1.5,2.1-.8,1.1-1.8,2.2-3.1,3.4s-2.6,2-4,2.4c-5.1,0-8-2.3-8.7-7ZM992.3,68.7c1.6-.8,3-1.6,4.1-2.4,1.1-.8,1.8-1.4,2.2-1.6v-26.8c-.2-.1-.7-.4-1.5-.7-.8-.4-1.9-.7-3.3-1-1.4-.3-3-.5-4.7-.5-4.4,0-7.8,1.5-10.3,4.5-2.5,3-3.8,7-3.8,12.2s.6,6.2,1.7,8.9c1.1,2.7,2.7,4.8,4.7,6.4,2,1.6,4.2,2.4,6.5,2.4s2.9-.4,4.5-1.2Z"/>
  <path d="M1028.4,73.8c-3.1-1.8-5.6-4.3-7.2-7.6-1.7-3.3-2.5-7.1-2.5-11.3s1-8.5,3-12.3c2-3.9,4.7-6.9,8-9.2,3.3-2.3,6.9-3.4,10.7-3.4s8.4,1.2,10.9,3.6c2.5,2.4,3.7,5.9,3.7,10.6s-.2,3.5-.6,4.8l-1.3,1.2h-27c0,6.3,1.2,11.2,3.8,14.6,2.6,3.4,6.2,5.1,10.8,5.1s7.6-1,11.9-3l.6.2,1.1,2.8c-2.4,1.7-4.9,3.2-7.8,4.6s-5.2,2.1-7.2,2.1c-4,0-7.6-.9-10.8-2.7ZM1044.1,45.6c1-.1,1.6-.4,2-.7.3-.3.5-1,.5-2,0-2.6-.7-4.6-2.1-6-1.4-1.4-3.4-2.1-6-2.1s-5.7,1-7.9,3.1c-2.2,2.1-3.6,4.9-4.2,8.4l17.7-.9Z"/>
  <path d="M1065.3,74.9c-.9-1.1-1.4-2.4-1.4-4s.6-3.1,1.7-4.3c1.1-1.2,2.6-1.8,4.4-1.8s3.1.5,4.1,1.6c1,1.1,1.5,2.4,1.5,4s-.6,3.1-1.7,4.3c-1.1,1.2-2.6,1.8-4.5,1.8s-3.1-.5-4.1-1.6Z"/>
  <path d="M20.5,269.5c-4.1-2.5-7.3-6.1-9.6-10.7-2.3-4.6-3.4-9.8-3.4-15.7s1.4-12.2,4.3-17.5c2.8-5.3,6.7-9.4,11.7-12.4,4.9-3,10.4-4.6,16.3-4.6s10.2,1.3,14.4,3.8c4.2,2.5,7.4,6.1,9.8,10.7,2.4,4.6,3.5,9.8,3.5,15.7s-1.5,12.2-4.4,17.5c-2.9,5.3-6.9,9.4-11.9,12.5-5,3-10.5,4.6-16.6,4.6s-10-1.3-14.1-3.8ZM48.6,265.1c3.2-2.2,5.7-5.2,7.4-9,1.8-3.9,2.6-8.3,2.6-13.2s-.9-10.5-2.8-14.7c-1.9-4.3-4.5-7.6-7.9-10-3.4-2.4-7.2-3.6-11.6-3.6s-7.5,1.1-10.6,3.2c-3.1,2.2-5.5,5.2-7.2,9-1.7,3.9-2.6,8.3-2.6,13.2s.9,10.5,2.7,14.7c1.8,4.3,4.4,7.6,7.7,10,3.3,2.4,7.1,3.6,11.3,3.6s7.8-1.1,11-3.2Z"/>
  <path d="M79.8,266.7c.7-1.1,1-3.1,1-6.2v-21.5c0-2.2-.3-3.7-.9-4.6-.6-.9-1.5-1.4-2.8-1.4s-1,0-1.3,0c-.4,0-.6.1-.7.2l-.5-.7.3-3c2.5-.5,5.1-1,7.9-1.7,2.8-.7,4.6-1.1,5.3-1.3l.7.6c-.1.6-.3,1.9-.6,4.1-.3,2.1-.4,4.1-.3,6l.4.3c2-3.1,4.3-5.6,6.9-7.5,2.6-2,4.9-2.9,6.9-2.9s1.6,0,2.1.1.8.2.9.2l.3.4c-.1.9-.4,2.9-.8,5.8-.4,3-.7,5.7-.7,8.2l-3.8.3c0-2.7-.2-4.5-.5-5.3-.4-.9-1.1-1.3-2.1-1.3s-3,.6-4.6,1.8c-1.6,1.2-3.1,2.8-4.5,4.8,0,1.9-.2,5-.4,9.4-.2,4.4-.3,7.9-.4,10.6,0,2.2.3,3.7,1,4.5.7.8,1.9,1.2,3.7,1.2s1.7,0,2.5,0c.8,0,1.4,0,1.8,0v.4c0,0-.8,4.3-.8,4.3-.7,0-2,0-3.9,0-2,0-4,0-6.1,0s-4.6,0-6.6.1c-2,0-3.2.2-3.7.2l.5-3.9c2-.2,3.3-.8,3.9-1.9Z"/>
  <path d="M104.6,286.1v-1c2.3-1.6,4.1-3.4,5.6-5.6,1.4-2.2,2.2-4.2,2.2-6.3s-.3-2.6-.9-3.8c-.6-1.2-1.3-2.2-2.3-3.1l.2-1.4c2.2-1.7,4.1-2.5,5.7-2.5s2.6.7,3.6,2c.9,1.3,1.4,3.2,1.4,5.6s-1.4,6.6-4.1,9.6-5.9,5.6-9.6,7.8l-1.8-1.5Z"/>
  <path d="M155.5,270.7c-3.1-1.8-5.5-4.3-7.2-7.6-1.7-3.3-2.5-7.1-2.5-11.3s1-8.5,3-12.3c2-3.9,4.7-6.9,8-9.2,3.3-2.3,6.9-3.4,10.7-3.4s8.4,1.2,10.9,3.6c2.5,2.4,3.7,5.9,3.7,10.6s-.2,3.5-.6,4.8l-1.3,1.2h-27c0,6.3,1.2,11.2,3.8,14.6,2.6,3.4,6.2,5.1,10.8,5.1s7.6-1,11.9-3l.6.2,1.1,2.8c-2.4,1.7-4.9,3.2-7.8,4.6-2.8,1.4-5.2,2.1-7.2,2.1-4,0-7.6-.9-10.8-2.7ZM171.1,242.4c1-.1,1.6-.4,2-.7.3-.3.5-1,.5-2,0-2.6-.7-4.6-2.1-6-1.4-1.4-3.4-2.1-6-2.1s-5.7,1-7.9,3.1c-2.2,2.1-3.6,4.9-4.2,8.4l17.7-.9Z"/>
  <path d="M196.8,255.4c-2.9-9.2-4.9-15.5-6.1-19-1.1-3.1-3.3-4.8-6.7-4.9l-.2-.4.6-3.2h8.1c2.5,0,4.9,0,7.2-.2,2.4-.2,3.9-.3,4.5-.4l.2.5-.6,3c-2.2,0-3.7.3-4.6.6-.8.4-1.2,1-1.2,1.9s1.2,5.8,3.5,14c2.4,8.1,3.9,13.6,4.8,16.5h.4l5.4-13.1c1.8-4.3,3.2-8,4.4-11.1s1.8-5,1.8-5.8-.3-1.5-.9-1.8c-.6-.4-1.7-.5-3.3-.5h-3.7l-.4-.6.5-3h10.5c0,0,8,0,8,0l-.7,3.6c-1.4.2-2.4.8-3.2,1.7-.8.9-1.8,2.8-3,5.7l-14,33.4-5.5,1.7c-1-3.1-2.9-9.3-5.8-18.5Z"/>
  <path d="M238.8,270.7c-3.1-1.8-5.5-4.3-7.2-7.6-1.7-3.3-2.5-7.1-2.5-11.3s1-8.5,3-12.3c2-3.9,4.7-6.9,8-9.2,3.3-2.3,6.9-3.4,10.7-3.4s8.4,1.2,10.9,3.6c2.5,2.4,3.7,5.9,3.7,10.6s-.2,3.5-.6,4.8l-1.3,1.2h-27c0,6.3,1.2,11.2,3.8,14.6,2.6,3.4,6.2,5.1,10.8,5.1s7.6-1,11.9-3l.6.2,1.1,2.8c-2.4,1.7-4.9,3.2-7.8,4.6-2.8,1.4-5.2,2.1-7.2,2.1-4,0-7.6-.9-10.8-2.7ZM254.5,242.4c1-.1,1.6-.4,2-.7.3-.3.5-1,.5-2,0-2.6-.7-4.6-2.1-6-1.4-1.4-3.4-2.1-6-2.1s-5.7,1-7.9,3.1c-2.2,2.1-3.6,4.9-4.2,8.4l17.7-.9Z"/>
  <path d="M304.3,267c.8-1,1.3-2.4,1.3-4.1l.4-19.4c0-3.3-.7-5.8-2.1-7.5-1.4-1.8-3.4-2.6-6-2.6s-4.2.5-6.4,1.6c-2.2,1.1-4,2.2-5.7,3.5-.6,13.5-.9,21.5-.9,24.1s.3,3.4.8,4.3c.5.8,1.4,1.2,2.7,1.2s1.4,0,2.1,0c.7,0,1.1,0,1.4,0l.2.4-.9,4.2c-.6,0-1.7-.1-3.4-.2-1.7,0-3.5,0-5.5,0s-3.6,0-5.6.2c-2.1.2-3.4.3-4.1.3l.5-4c1.9-.3,3.2-.9,4-1.8.8-.8,1.2-2.2,1.2-4v-23.9c0-2.2-.4-3.8-1.1-4.7-.7-.9-2-1.3-3.7-1.3h-1.1l-.3-.4.3-3.2c2.8-.5,5.6-1,8.4-1.6,2.8-.6,4.6-1,5.3-1.2l.6.8c-.1.4-.3,1.2-.6,2.5-.3,1.3-.4,2.6-.5,4l.2.3c7.4-5,12.2-7.4,14.4-7.4,4.1,0,7.4,1.1,9.8,3.4,2.4,2.3,3.6,5.4,3.6,9.2s-.2,3.7-.6,9c-.5,6.8-.8,11.5-.8,14.2s.3,3.3.8,4.2c.5.9,1.4,1.3,2.6,1.3s1.4,0,2.1,0c.7,0,1.1,0,1.4,0l.2.4-.8,4.2c-.6,0-1.7-.1-3.3-.2-1.6,0-3.4,0-5.4,0s-3.6.2-5.8.5c-2.2.3-3.6.6-4.3.7l.4-4c2-.5,3.4-1.3,4.2-2.3Z"/>
  <path d="M352.1,272.8c-2.8-.4-4.3-.6-4.3-.6l-.9-.8v-60.5c0-3.5-1.2-5.3-3.6-5.3s-1,0-1.4,0c-.4,0-.7.1-.8.2l-.3-.3.4-3.2c2.8-.4,5.7-.9,8.7-1.6,3-.7,4.9-1.1,5.8-1.3l.6,1.3c-.5.7-.9,4-1.3,9.9s-.7,13.6-1,22.9c2.9-2.1,5.5-3.8,7.6-5,2.1-1.2,3.5-1.9,4.3-1.9,3.7,0,6.9.9,9.8,2.6,2.9,1.8,5.1,4.2,6.7,7.4,1.6,3.2,2.4,6.8,2.4,10.9s-1.1,9-3.3,12.9c-2.2,3.9-5.1,7-8.9,9.3-3.7,2.3-7.8,3.4-12.2,3.4s-5.5-.2-8.4-.5ZM373.5,263.5c2.5-3,3.8-7,3.8-12.2s-.6-6.3-1.7-9c-1.1-2.7-2.7-4.9-4.7-6.5-2-1.6-4.2-2.4-6.5-2.4s-3,.5-5,1.5c-2,1-3.9,2.3-5.5,3.8l-.3,27.2c1.2.6,2.7,1.1,4.5,1.5,1.8.4,3.5.6,5.1.6,4.4,0,7.8-1.5,10.3-4.5Z"/>
  <path d="M400.4,270.7c-3.1-1.8-5.5-4.3-7.2-7.6-1.7-3.3-2.5-7.1-2.5-11.3s1-8.5,3-12.3c2-3.9,4.7-6.9,8-9.2,3.3-2.3,6.9-3.4,10.7-3.4s8.4,1.2,10.9,3.6c2.5,2.4,3.7,5.9,3.7,10.6s-.2,3.5-.6,4.8l-1.3,1.2h-27c0,6.3,1.2,11.2,3.8,14.6,2.6,3.4,6.2,5.1,10.8,5.1s7.6-1,11.9-3l.6.2,1.1,2.8c-2.4,1.7-4.9,3.2-7.8,4.6-2.8,1.4-5.2,2.1-7.2,2.1-4,0-7.6-.9-10.8-2.7ZM416.1,242.4c1-.1,1.6-.4,2-.7.3-.3.5-1,.5-2,0-2.6-.7-4.6-2.1-6-1.4-1.4-3.4-2.1-6-2.1s-5.7,1-7.9,3.1c-2.2,2.1-3.6,4.9-4.2,8.4l17.7-.9Z"/>
  <path d="M440.5,270.7c-1.8-1.8-2.7-4.8-2.7-9.2v-24.1c0-1.8-.4-3-1.2-3.7-.8-.7-2.3-1.1-4.4-1.2l-.4-.6.5-2.9c1.9-.9,3.7-2,5.5-3.4,1.8-1.3,3.3-2.5,4.4-3.5,1.1-1,1.9-1.7,2.2-2l2,.8c0,.3-.2,1.1-.3,2.4-.1,1.2-.3,2.9-.5,5l14.4-.3.3.3-.9,5.2-14.2-.3c-.5,7.2-.7,15.3-.7,24.5s.6,5.7,1.7,7.1c1.1,1.4,3.1,2.1,5.9,2.1s2-.1,2.9-.4c1-.3,1.8-.5,2.4-.8.7-.3,1.1-.5,1.3-.5l1,2.5c-.4.3-1.2.9-2.5,1.9-1.3.9-2.6,1.8-4.1,2.7-1.5.9-2.6,1.3-3.3,1.3-4.4,0-7.6-.9-9.4-2.7Z"/>
  <path d="M471.5,270.7c-1.8-1.8-2.7-4.8-2.7-9.2v-24.1c0-1.8-.4-3-1.2-3.7-.8-.7-2.3-1.1-4.4-1.2l-.4-.6.5-2.9c1.9-.9,3.7-2,5.5-3.4,1.8-1.3,3.3-2.5,4.4-3.5,1.1-1,1.9-1.7,2.2-2l2,.8c0,.3-.2,1.1-.3,2.4-.1,1.2-.3,2.9-.5,5l14.4-.3.3.3-.9,5.2-14.2-.3c-.5,7.2-.7,15.3-.7,24.5s.6,5.7,1.7,7.1c1.1,1.4,3.1,2.1,5.9,2.1s2-.1,2.9-.4c1-.3,1.8-.5,2.4-.8.7-.3,1.1-.5,1.3-.5l1,2.5c-.4.3-1.2.9-2.5,1.9-1.3.9-2.6,1.8-4.1,2.7-1.5.9-2.6,1.3-3.3,1.3-4.4,0-7.6-.9-9.4-2.7Z"/>
  <path d="M505.1,270.7c-3.1-1.8-5.5-4.3-7.2-7.6-1.7-3.3-2.5-7.1-2.5-11.3s1-8.5,3-12.3c2-3.9,4.7-6.9,8-9.2,3.3-2.3,6.9-3.4,10.7-3.4s8.4,1.2,10.9,3.6c2.5,2.4,3.7,5.9,3.7,10.6s-.2,3.5-.6,4.8l-1.3,1.2h-27c0,6.3,1.2,11.2,3.8,14.6,2.6,3.4,6.2,5.1,10.8,5.1s7.6-1,11.9-3l.6.2,1.1,2.8c-2.4,1.7-4.9,3.2-7.8,4.6-2.8,1.4-5.2,2.1-7.2,2.1-4,0-7.6-.9-10.8-2.7ZM520.8,242.4c1-.1,1.6-.4,2-.7.3-.3.5-1,.5-2,0-2.6-.7-4.6-2.1-6-1.4-1.4-3.4-2.1-6-2.1s-5.7,1-7.9,3.1c-2.2,2.1-3.6,4.9-4.2,8.4l17.7-.9Z"/>
  <path d="M544.1,266.7c.7-1.1,1-3.1,1-6.2v-21.5c0-2.2-.3-3.7-.9-4.6-.6-.9-1.5-1.4-2.8-1.4s-1,0-1.3,0c-.4,0-.6.1-.7.2l-.5-.7.3-3c2.5-.5,5.1-1,7.9-1.7,2.8-.7,4.6-1.1,5.3-1.3l.7.6c-.1.6-.3,1.9-.6,4.1-.3,2.1-.4,4.1-.3,6l.4.3c2-3.1,4.3-5.6,6.9-7.5,2.6-2,4.9-2.9,6.9-2.9s1.6,0,2.1.1c.5,0,.8.2.9.2l.3.4c-.1.9-.4,2.9-.8,5.8-.4,3-.7,5.7-.7,8.2l-3.8.3c0-2.7-.2-4.5-.5-5.3-.4-.9-1.1-1.3-2.1-1.3s-3,.6-4.6,1.8c-1.6,1.2-3.1,2.8-4.5,4.8,0,1.9-.2,5-.4,9.4-.2,4.4-.3,7.9-.4,10.6,0,2.2.3,3.7,1,4.5.7.8,1.9,1.2,3.7,1.2s1.7,0,2.5,0c.8,0,1.4,0,1.8,0v.4c0,0-.8,4.3-.8,4.3-.7,0-2,0-3.9,0-2,0-4,0-6.1,0s-4.6,0-6.6.1c-2,0-3.2.2-3.7.2l.5-3.9c2-.2,3.3-.8,3.9-1.9Z"/>
  <path d="M568.9,286.1v-1c2.3-1.6,4.1-3.4,5.6-5.6,1.4-2.2,2.2-4.2,2.2-6.3s-.3-2.6-.9-3.8c-.6-1.2-1.3-2.2-2.3-3.1l.2-1.4c2.2-1.7,4.1-2.5,5.7-2.5s2.6.7,3.6,2c.9,1.3,1.4,3.2,1.4,5.6s-1.4,6.6-4.1,9.6c-2.7,3-5.9,5.6-9.6,7.8l-1.8-1.5Z"/>
  <path d="M617.5,272.9c-1.7-.3-3.1-.6-4.1-.9-1-.3-1.6-.6-1.9-.7l-.3-.7c.2-1,.4-3,.7-6.1.3-3.1.4-5.4.5-7.1l3.4-.5c0,4.3.7,7.3,2.2,9.1,1.4,1.8,3.9,2.6,7.3,2.6s4.6-.6,6.3-1.7c1.7-1.1,2.5-2.5,2.5-4.1s-.8-3.1-2.3-4.5c-1.5-1.3-4.6-3.2-9.1-5.6-3.7-1.9-6.4-3.8-8.1-5.8s-2.5-4.1-2.5-6.5.8-5,2.4-7.1c1.6-2.1,3.7-3.8,6.5-5,2.7-1.2,5.8-1.8,9.2-1.8s3.1.1,4.5.3c1.4.2,2.6.5,3.5.7.9.3,1.5.4,1.8.5l.2.5c-.1.7-.4,2.1-.9,4.5-.5,2.3-.8,4.8-1,7.5l-3.6.3c0-.2,0-.6,0-1.2,0-.6,0-1.1,0-1.7,0-2.4-.6-4.1-1.9-5.1s-3.3-1.6-6.1-1.6-4.1.5-5.6,1.6c-1.5,1-2.3,2.3-2.3,3.8s.7,3,2,4.4,3.5,2.8,6.5,4.4c5.3,2.8,8.9,5.2,10.8,7.1,1.9,1.9,2.9,4.1,2.9,6.6s-.8,4.8-2.4,7c-1.6,2.2-3.8,3.9-6.6,5.1-2.8,1.3-5.7,1.9-8.9,1.9s-4-.1-5.7-.4Z"/>
  <path d="M656.7,255.4c-2.8-9.2-4.8-15.5-5.9-19-1.1-3.2-3.3-4.8-6.5-4.9l-.2-.4.6-3.2h7.8c2.5,0,4.8,0,7.1-.2,2.3-.2,3.7-.3,4.4-.4l.2.5-.6,3c-2.2,0-3.6.3-4.4.6-.8.4-1.2,1-1.2,1.9s1.1,5.9,3.4,14.1c2.3,8.1,3.9,13.6,4.7,16.5h.4l5.8-14.5c2.1-5,3.6-8.8,4.5-11.5-.7-2.2-1.6-3.9-2.6-4.9-1-1-2.5-1.6-4.4-1.6l-.2-.4.6-3.2h7.8c2.4,0,4.8,0,7.1,0,2.3-.1,3.8-.2,4.4-.3l.2.5-.6,3c-2.2,0-3.7.3-4.5.6-.8.3-1.1.9-1.1,1.8s1.1,5.8,3.4,14c2.3,8.1,3.9,13.7,4.7,16.6h.4c2.9-7.4,4.8-12.1,5.7-14.2,1.6-4,3-7.5,4.1-10.4,1.1-2.9,1.6-4.7,1.6-5.5s-.3-1.5-.9-1.9c-.6-.4-1.6-.5-3.1-.5h-3.6l-.4-.6.5-3c.6,0,1.8,0,3.5,0,1.8,0,3.8,0,6.2,0h8c0,0-.7,3.5-.7,3.5-1.3.1-2.4.7-3.1,1.6-.8.9-1.8,2.9-2.9,5.7l-13.7,33.4-5.3,1.7-8.8-28.9h-.6l-10.8,27.2-5.4,1.7c-.9-3.1-2.8-9.3-5.6-18.5Z"/>
  <path d="M717,269.3c2-.5,3.4-1.3,4.2-2.3.8-1,1.3-2.4,1.3-4.1v-24.9c0-3.5-1.2-5.3-3.6-5.3s-.9,0-1.5.1-.8.2-1,.2l.4-3.6c2.7-.4,5.6-.9,8.5-1.6,2.9-.7,4.8-1.1,5.6-1.3l.5,1.2c-.6,1.4-1.1,5.6-1.6,12.6-.5,7-.7,14.4-.7,22.1s.3,3.3.8,4.2c.5.9,1.4,1.3,2.6,1.3s1.4,0,2.1,0c.7,0,1.1,0,1.4,0l.2.4-.8,4.2c-.6,0-1.7-.1-3.3-.2-1.6,0-3.4,0-5.4,0s-3.6.2-5.8.5c-2.2.3-3.6.6-4.3.7l.4-4ZM721.7,213.7c-.8-1-1.3-2.2-1.3-3.5s.6-2.9,1.7-4.1c1.1-1.1,2.5-1.7,4.1-1.7s2.7.5,3.5,1.5c.8,1,1.3,2.2,1.3,3.5s-.6,2.9-1.7,4.1c-1.1,1.1-2.5,1.7-4.1,1.7s-2.7-.5-3.5-1.5Z"/>
  <path d="M749.4,270.7c-1.8-1.8-2.7-4.8-2.7-9.2v-24.1c0-1.8-.4-3-1.2-3.7-.8-.7-2.3-1.1-4.4-1.2l-.4-.6.5-2.9c1.9-.9,3.7-2,5.5-3.4,1.8-1.3,3.3-2.5,4.4-3.5,1.1-1,1.9-1.7,2.2-2l2,.8c0,.3-.2,1.1-.3,2.4-.1,1.2-.3,2.9-.5,5l14.4-.3.3.3-.9,5.2-14.2-.3c-.5,7.2-.7,15.3-.7,24.5s.6,5.7,1.7,7.1c1.1,1.4,3.1,2.1,5.9,2.1s2-.1,2.9-.4c1-.3,1.8-.5,2.4-.8.7-.3,1.1-.5,1.3-.5l1,2.5c-.4.3-1.2.9-2.5,1.9-1.3.9-2.6,1.8-4.1,2.7-1.5.9-2.6,1.3-3.3,1.3-4.4,0-7.6-.9-9.4-2.7Z"/>
  <path d="M778.8,267.5c-3.7-3.9-5.6-9.2-5.6-15.8s1-8.9,3-12.7c2-3.8,4.7-6.8,8.1-9,3.4-2.2,7.3-3.3,11.5-3.3s3.6.1,5.3.4c1.7.3,3.1.5,4.2.8,1.1.3,1.7.5,2,.6l.3.7c0,.3-.2,1.1-.5,2.3-.3,1.2-.6,2.8-.9,4.8-.3,2-.5,4.1-.6,6.4l-4,.3v-3c0-2.4-.7-4.4-2.2-5.8-1.5-1.5-3.4-2.2-5.8-2.2-4,0-7.1,1.4-9.2,4.3-2.2,2.8-3.2,6.9-3.2,12.1s1.2,10.2,3.6,13.5c2.4,3.3,5.6,4.9,9.7,4.9s3.3-.2,4.9-.7c1.6-.5,3-1,4.1-1.5,1.1-.5,1.8-.8,2.1-1l.6.2,1.1,3c-.5.3-1.5,1-3,2.1-1.5,1-3.3,2.1-5.3,3-2,1-3.7,1.5-5.1,1.5-6.2,0-11.2-2-14.9-5.9Z"/>
  <path d="M817.3,266.9c.7-.8,1.1-2.1,1.1-3.9v-52.1c0-1.8-.3-3.1-.9-3.9-.6-.8-1.5-1.2-2.7-1.2h-2.1l-.4-.3.4-3.1c2.2-.3,4.7-.7,7.5-1.2,2.8-.6,5.1-1.1,7-1.6l.6,1.3c-.5.7-.9,4.2-1.3,10.5-.4,6.3-.8,14-1,23.1,7.4-5.1,12.3-7.6,14.7-7.6,4.2,0,7.5,1.1,9.9,3.3,2.4,2.2,3.5,5.3,3.5,9.3s-.2,4.3-.7,9c-.6,7.6-.9,12.4-.9,14.2s.3,3.3.8,4.2c.5.9,1.4,1.3,2.6,1.3l3.4-.2.2.4-.8,4.2c-4.3-.2-7.2-.3-8.7-.3-2.6,0-6,.4-10.1,1.2l.4-4c2-.5,3.4-1.3,4.2-2.3.8-1,1.3-2.4,1.3-4.1l.6-19.4c0-3.3-.7-5.8-2.1-7.5-1.4-1.8-3.4-2.6-6-2.6s-3.6.5-6,1.6c-2.4,1-4.5,2.3-6.4,3.8-.2,7.3-.3,15.2-.3,23.8s.3,3.4.8,4.3c.5.8,1.4,1.2,2.7,1.2l3.4-.2.2.4-.9,4.2c-4.5-.2-7.5-.3-8.9-.3-2.8,0-6,0-9.7.2l.6-4c1.9-.2,3.2-.7,4-1.5Z"/>
  <path d="M889.9,270.7c-1.8-1.8-2.7-4.8-2.7-9.2v-24.1c0-1.8-.4-3-1.2-3.7-.8-.7-2.3-1.1-4.4-1.2l-.4-.6.5-2.9c1.9-.9,3.7-2,5.5-3.4,1.8-1.3,3.3-2.5,4.4-3.5,1.1-1,1.9-1.7,2.2-2l2,.8c0,.3-.2,1.1-.3,2.4-.1,1.2-.3,2.9-.5,5l14.4-.3.3.3-.9,5.2-14.2-.3c-.5,7.2-.7,15.3-.7,24.5s.6,5.7,1.7,7.1c1.1,1.4,3.1,2.1,5.9,2.1s2-.1,2.9-.4c1-.3,1.8-.5,2.4-.8.7-.3,1.1-.5,1.3-.5l1,2.5c-.4.3-1.2.9-2.5,1.9-1.3.9-2.6,1.8-4.1,2.7-1.5.9-2.6,1.3-3.3,1.3-4.4,0-7.6-.9-9.4-2.7Z"/>
  <path d="M922.8,270.6c-2.9-1.8-5.1-4.4-6.7-7.7-1.6-3.3-2.4-7.1-2.4-11.3s1-8.8,3-12.6c2-3.8,4.7-6.8,8.2-9,3.5-2.2,7.3-3.3,11.6-3.3s6.9.9,9.8,2.7c2.9,1.8,5.2,4.4,6.8,7.7,1.6,3.3,2.4,7.1,2.4,11.3s-1,8.8-3,12.6c-2,3.8-4.7,6.8-8.2,9-3.5,2.2-7.3,3.3-11.6,3.3s-7-.9-9.9-2.7ZM944.1,264.1c2.2-3,3.2-7,3.2-12.1s-.6-7.3-1.8-10.3-2.8-5.4-4.9-7.1c-2.1-1.7-4.5-2.5-7.2-2.5s-6.6,1.5-8.7,4.5c-2.2,3-3.2,7.1-3.2,12.2s.6,7.3,1.8,10.3c1.2,3,2.8,5.3,4.9,7,2.1,1.7,4.5,2.5,7.2,2.5s6.6-1.5,8.7-4.5Z"/>
  <path d="M1003.5,265.4h-.4c-2.4,2.3-4.5,4.1-6.4,5.5s-3.4,2.1-4.4,2.1c-3.7,0-6.7-1.1-9-3.4-2.4-2.3-3.5-5.2-3.5-8.7s.5-3.6,1.4-5c.9-1.4,2.2-2.4,3.8-2.8l18.6-5.1v-4.3c0-3.3-.7-5.8-2.2-7.6-1.5-1.8-3.6-2.7-6.4-2.7s-3.8.4-5.8,1.3c-2,.8-4,2.1-6,3.6l-.5-.3-1.2-4.2c3.1-1.8,6.2-3.3,9.3-4.8,3.1-1.4,5.3-2.1,6.7-2.1,4.2,0,7.6,1.1,10,3.3,2.4,2.2,3.6,5.3,3.6,9.3s-.2,4.4-.7,8.8c-.7,7.2-1.1,11.8-1.1,13.7s.4,2.5,1.1,3.3c.7.8,1.7,1.2,2.9,1.2s2.1-.2,3.2-.7c1.1-.5,2-1.1,2.6-1.7l1.4,1.6c-1,1.6-2.2,3.2-3.8,4.8-1.5,1.5-3.1,2.6-4.8,3.1-5.3,0-8.2-2.6-8.7-7.9ZM998.3,265c1.7-.9,3.2-2,4.6-3.4l.5-10-13.3,4c-1.9.6-2.8,2-2.8,4.1s.6,3.5,1.9,4.7c1.3,1.2,2.9,1.9,4.8,1.9s2.7-.4,4.4-1.3Z"/>
  <path d="M38.9,383.9l-.7-.3c-6.8,4.6-10.9,7-12.2,7-3.7,0-7-.9-9.9-2.6-2.9-1.7-5.1-4.2-6.7-7.3-1.6-3.1-2.4-6.7-2.4-10.8s1.1-8.9,3.3-12.8c2.2-3.9,5.2-7,8.9-9.4,3.8-2.3,7.8-3.5,12.2-3.5s4.3.1,6.8.4v-16.3c0-3.5-1.2-5.3-3.6-5.3s-.9,0-1.5.1c-.5,0-.8.2-1,.2l.4-3.6c2.8-.4,5.7-.9,8.7-1.6,3-.7,4.9-1.1,5.8-1.3l.6,1.3c-.7,1.1-1.4,8-1.9,20.7-.6,12.7-.8,26.1-.8,40.4s.4,2.5,1.1,3.3c.7.8,1.7,1.2,2.9,1.2s1.8-.2,2.7-.5c.9-.4,1.6-.7,2.2-1.1.6-.4.9-.7,1-.8l1.4,1.6c-.2.3-.7,1-1.5,2.1-.8,1.1-1.8,2.2-3.1,3.4s-2.6,2-4,2.4c-5.1,0-8-2.3-8.7-7ZM32,383c1.6-.8,3-1.6,4.1-2.4,1.1-.8,1.8-1.4,2.2-1.6v-26.8c-.2-.1-.7-.4-1.5-.7-.8-.4-1.9-.7-3.3-1-1.4-.3-3-.5-4.7-.5-4.4,0-7.8,1.5-10.3,4.5-2.5,3-3.8,7-3.8,12.2s.6,6.2,1.7,8.9c1.1,2.7,2.7,4.8,4.7,6.4,2,1.6,4.2,2.4,6.5,2.4s2.9-.4,4.5-1.2Z"/>
  <path d="M68.2,388.2c-3.1-1.8-5.5-4.3-7.2-7.6-1.7-3.3-2.5-7.1-2.5-11.3s1-8.5,3-12.3c2-3.9,4.7-6.9,8-9.2,3.3-2.3,6.9-3.4,10.7-3.4s8.4,1.2,10.9,3.6c2.5,2.4,3.7,5.9,3.7,10.6s-.2,3.5-.6,4.8l-1.3,1.2h-27c0,6.3,1.2,11.2,3.8,14.6,2.6,3.4,6.2,5.1,10.8,5.1s7.6-1,11.9-3l.6.2,1.1,2.8c-2.4,1.7-4.9,3.2-7.8,4.6-2.8,1.4-5.2,2.1-7.2,2.1-4,0-7.6-.9-10.8-2.7ZM83.9,359.9c1-.1,1.6-.4,2-.7.3-.3.5-1,.5-2,0-2.6-.7-4.6-2.1-6-1.4-1.4-3.4-2.1-6-2.1s-5.7,1-7.9,3.1c-2.2,2.1-3.6,4.9-4.2,8.4l17.7-.9Z"/>
  <path d="M108.5,390.4c-1.7-.3-3.1-.6-4.1-.9-1-.3-1.6-.6-1.9-.7l-.3-.7c.2-1,.4-3,.7-6.1.3-3.1.4-5.4.5-7.1l3.4-.5c0,4.3.7,7.3,2.2,9.1,1.4,1.8,3.9,2.6,7.3,2.6s4.6-.6,6.3-1.7c1.7-1.1,2.5-2.5,2.5-4.1s-.8-3.1-2.3-4.5c-1.5-1.3-4.6-3.2-9.1-5.6-3.7-1.9-6.4-3.8-8.1-5.8-1.7-2-2.5-4.1-2.5-6.5s.8-5,2.4-7.1c1.6-2.1,3.7-3.8,6.5-5,2.7-1.2,5.8-1.8,9.2-1.8s3.1.1,4.5.3c1.4.2,2.6.5,3.5.7.9.3,1.5.4,1.8.5l.2.5c-.1.7-.4,2.1-.9,4.5-.5,2.3-.8,4.8-1,7.5l-3.6.3c0-.2,0-.6,0-1.2,0-.6,0-1.1,0-1.7,0-2.4-.6-4.1-1.9-5.1-1.3-1.1-3.3-1.6-6.1-1.6s-4.1.5-5.6,1.6c-1.5,1-2.3,2.3-2.3,3.8s.7,3,2,4.4c1.3,1.4,3.5,2.8,6.5,4.4,5.3,2.8,8.9,5.2,10.8,7.1,1.9,1.9,2.9,4.1,2.9,6.6s-.8,4.8-2.4,7c-1.6,2.2-3.8,3.9-6.6,5.1-2.8,1.3-5.7,1.9-8.9,1.9s-4-.1-5.7-.4Z"/>
  <path d="M142.5,384.8c.7-.7,1.2-1.6,1.3-2.7.2-1.1.2-3,.2-5.7v-48.1c0-3.5-1.2-5.3-3.6-5.3s-.9,0-1.5.1c-.5,0-.8.2-1,.2,0-.4,0-1,.2-1.8l.2-1.9c2.8-.4,5.7-.9,8.7-1.6,3-.7,4.9-1.1,5.8-1.3l.6,1.3c-.7,1.1-1.4,8-1.9,20.8-.6,12.7-.8,26.4-.8,41s.3,3.4.8,4.3c.5.8,1.4,1.2,2.7,1.2s1.4,0,2.1,0c.7,0,1.1,0,1.4,0l.2.4-.9,4.2c-.6,0-1.7-.1-3.4-.2-1.7,0-3.5,0-5.5,0s-3.6,0-5.6.2c-2.1.2-3.4.3-4.1.3l.5-4c1.7-.3,2.9-.7,3.6-1.4ZM153.4,365.2l11.7-11.2c.9-.8,1.5-1.5,1.9-2,.3-.5.5-1,.5-1.4,0-.7-.4-1.2-1.3-1.6-.8-.3-2.2-.5-4.1-.5l-.3-.5.9-2.8c.7,0,2,0,4,0,1.9,0,3.9,0,5.9,0s3.4,0,5.4-.2c2-.2,3.3-.3,3.9-.3l.3.5-.8,3c-2.7.8-5.4,2.3-8.1,4.5-2.7,2.2-6,5.2-9.7,9l-3,3,10.3,13.2c2.2,2.9,4.2,4.9,6.1,6.2,1.8,1.2,3.8,1.9,5.8,1.9l.3.5-.6,2.8c-.6.2-1.8.5-3.6.9-1.8.4-3,.6-3.6.6-1,0-2.1-.3-3.4-1-1-.5-2-1.3-3-2.4-1-1.1-2.3-2.7-3.9-4.9l-11.6-16,.2-1.6Z"/>
  <path d="M193.8,388.2c-1.8-1.8-2.7-4.8-2.7-9.2v-24.1c0-1.8-.4-3-1.2-3.7-.8-.7-2.3-1.1-4.4-1.2l-.4-.6.5-2.9c1.9-.9,3.7-2,5.5-3.4,1.8-1.3,3.3-2.5,4.4-3.5,1.1-1,1.9-1.7,2.2-2l2,.8c0,.3-.2,1.1-.3,2.4-.1,1.2-.3,2.9-.5,5l14.4-.3.3.3-.9,5.2-14.2-.3c-.5,7.2-.7,15.3-.7,24.5s.6,5.7,1.7,7.1c1.1,1.4,3.1,2.1,5.9,2.1s2-.1,2.9-.4c1-.3,1.8-.5,2.4-.8.7-.3,1.1-.5,1.3-.5l1,2.5c-.4.3-1.2.9-2.5,1.9-1.3.9-2.6,1.8-4.1,2.7-1.5.9-2.6,1.3-3.3,1.3-4.4,0-7.6-.9-9.4-2.7Z"/>
  <path d="M226.7,388.1c-2.9-1.8-5.1-4.4-6.7-7.7-1.6-3.3-2.4-7.1-2.4-11.3s1-8.8,3-12.6c2-3.8,4.7-6.8,8.2-9,3.5-2.2,7.3-3.3,11.6-3.3s6.9.9,9.8,2.7c2.9,1.8,5.2,4.4,6.8,7.7,1.6,3.3,2.4,7.1,2.4,11.3s-1,8.8-3,12.6c-2,3.8-4.7,6.8-8.2,9-3.5,2.2-7.3,3.3-11.6,3.3s-7-.9-9.9-2.7ZM248,381.6c2.2-3,3.2-7,3.2-12.1s-.6-7.3-1.8-10.3-2.8-5.4-4.9-7.1c-2.1-1.7-4.5-2.5-7.2-2.5s-6.6,1.5-8.7,4.5-3.2,7.1-3.2,12.2.6,7.3,1.8,10.3c1.2,3,2.8,5.3,4.9,7,2.1,1.7,4.5,2.5,7.2,2.5s6.6-1.5,8.7-4.5Z"/>
  <path d="M266.4,409.1c1.4-.2,2.5-.5,3.2-.9s1.2-1,1.4-2c.3-.9.4-2.3.4-4.2,0-2.7,0-5.1,0-7.1v-9.2c0,0,0-29.2,0-29.2,0-2.2-.4-3.8-1.1-4.7-.7-.9-2-1.3-3.7-1.3h-1.1l-.3-.4.3-3.2c2.8-.5,5.6-1,8.4-1.6,2.8-.6,4.6-1,5.3-1.2l.6.8c0,.3-.2,1-.4,2.1-.2,1.1-.4,2.1-.5,3.2l.4.7c6.1-4.2,9.9-6.4,11.4-6.4,3.7,0,7,.9,9.9,2.6,2.9,1.7,5.1,4.2,6.7,7.3,1.6,3.1,2.4,6.7,2.4,10.8s-1.1,8.9-3.3,12.8c-2.2,3.9-5.2,7-8.9,9.4-3.7,2.3-7.8,3.5-12.1,3.5s-2.9,0-4.3-.1c-1.4,0-2.4-.2-2.9-.2v10.1c0,3,.4,5,1,6.1.6,1.1,1.8,1.6,3.7,1.6h3.3c0,0,.2.2.2.2l-.8,3.7h-9.3c-2.4,0-4.5,0-6.5.3-2,.2-3.3.3-3.9.4l.5-3.8ZM298.4,381c2.5-3,3.8-7,3.8-12.2s-.6-6.2-1.7-8.9c-1.1-2.7-2.7-4.8-4.7-6.4-2-1.6-4.2-2.4-6.5-2.4s-2.9.4-4.8,1.3c-1.9.9-3.7,2-5.4,3.5-.5,8.6-.8,17.8-.8,27.6,1.3.5,2.9,1,4.7,1.3,1.8.4,3.5.5,5.1.5,4.4,0,7.8-1.5,10.3-4.5Z"/>
  <path d="M314.2,403.6v-1c2.3-1.6,4.1-3.4,5.6-5.6,1.4-2.2,2.2-4.2,2.2-6.3s-.3-2.6-.9-3.8c-.6-1.2-1.3-2.2-2.3-3.1l.2-1.4c2.2-1.7,4.1-2.5,5.7-2.5s2.6.7,3.6,2c.9,1.3,1.4,3.2,1.4,5.6s-1.4,6.6-4.1,9.6-5.9,5.6-9.6,7.8l-1.8-1.5Z"/>
  <path d="M354.8,386.8c1.8-.5,3.1-1.2,3.9-2,.8-.8,1.2-1.7,1.4-2.8.2-1.1.2-3,.2-5.6v-48.1c0-2-.2-3.4-.7-4.1-.5-.7-1.4-1.1-2.8-1.1s-1.1,0-2.3.2l-.3-.2.4-3.3c5.5-.8,10.3-1.7,14.5-2.8l.6,1.3c-.7,1.1-1.4,8.1-1.9,21-.6,12.9-.8,26.5-.8,40.8s.3,3.4.8,4.2c.5.8,1.4,1.3,2.6,1.3l3.4-.2.2.4-.8,4.2c-4.3-.2-7.2-.3-8.7-.3-2.2,0-5.6.4-10.1,1.2l.4-4Z"/>
  <path d="M402.1,382.9h-.4c-2.4,2.3-4.5,4.1-6.4,5.5-1.9,1.4-3.4,2.1-4.4,2.1-3.7,0-6.7-1.1-9-3.4-2.4-2.3-3.5-5.2-3.5-8.7s.5-3.6,1.4-5c.9-1.4,2.2-2.4,3.8-2.8l18.6-5.1v-4.3c0-3.3-.7-5.8-2.2-7.6-1.5-1.8-3.6-2.7-6.4-2.7s-3.8.4-5.8,1.3c-2,.8-4,2.1-6,3.6l-.5-.3-1.2-4.2c3.1-1.8,6.2-3.3,9.3-4.8,3.1-1.4,5.3-2.1,6.7-2.1,4.2,0,7.6,1.1,10,3.3,2.4,2.2,3.6,5.3,3.6,9.3s-.2,4.4-.7,8.8c-.7,7.2-1.1,11.8-1.1,13.7s.4,2.5,1.1,3.3c.7.8,1.7,1.2,2.9,1.2s2.1-.2,3.2-.7c1.1-.5,2-1.1,2.6-1.7l1.4,1.6c-1,1.6-2.2,3.2-3.8,4.8s-3.1,2.6-4.7,3.1c-5.3,0-8.2-2.6-8.7-7.9ZM396.9,382.5c1.7-.9,3.2-2,4.6-3.4l.5-10-13.3,4c-1.9.6-2.8,2-2.8,4.1s.6,3.5,1.9,4.7c1.3,1.2,2.9,1.9,4.8,1.9s2.7-.4,4.4-1.3Z"/>
  <path d="M423.6,409.1c1.4-.2,2.5-.5,3.2-.9s1.2-1,1.4-2c.3-.9.4-2.3.4-4.2,0-2.7,0-5.1,0-7.1v-9.2c0,0,0-29.2,0-29.2,0-2.2-.4-3.8-1.1-4.7-.7-.9-2-1.3-3.7-1.3h-1.1l-.3-.4.3-3.2c2.8-.5,5.6-1,8.4-1.6,2.8-.6,4.6-1,5.3-1.2l.6.8c0,.3-.2,1-.4,2.1-.2,1.1-.4,2.1-.5,3.2l.4.7c6.1-4.2,9.9-6.4,11.4-6.4,3.7,0,7,.9,9.9,2.6,2.9,1.7,5.1,4.2,6.7,7.3,1.6,3.1,2.4,6.7,2.4,10.8s-1.1,8.9-3.3,12.8c-2.2,3.9-5.2,7-8.9,9.4-3.7,2.3-7.8,3.5-12.1,3.5s-2.9,0-4.3-.1c-1.4,0-2.4-.2-2.9-.2v10.1c0,3,.4,5,1,6.1.6,1.1,1.8,1.6,3.7,1.6h3.3c0,0,.2.2.2.2l-.8,3.7h-9.3c-2.4,0-4.5,0-6.5.3-2,.2-3.3.3-3.9.4l.5-3.8ZM455.6,381c2.5-3,3.8-7,3.8-12.2s-.6-6.2-1.7-8.9c-1.1-2.7-2.7-4.8-4.7-6.4-2-1.6-4.2-2.4-6.5-2.4s-2.9.4-4.8,1.3c-1.9.9-3.7,2-5.4,3.5-.5,8.6-.8,17.8-.8,27.6,1.3.5,2.9,1,4.7,1.3,1.8.4,3.5.5,5.1.5,4.4,0,7.8-1.5,10.3-4.5Z"/>
  <path d="M479.9,388.2c-1.8-1.8-2.7-4.8-2.7-9.2v-24.1c0-1.8-.4-3-1.2-3.7-.8-.7-2.3-1.1-4.4-1.2l-.4-.6.5-2.9c1.9-.9,3.7-2,5.5-3.4,1.8-1.3,3.3-2.5,4.4-3.5,1.1-1,1.9-1.7,2.2-2l2,.8c0,.3-.2,1.1-.3,2.4-.1,1.2-.3,2.9-.5,5l14.4-.3.3.3-.9,5.2-14.2-.3c-.5,7.2-.7,15.3-.7,24.5s.6,5.7,1.7,7.1c1.1,1.4,3.1,2.1,5.9,2.1s2-.1,2.9-.4c1-.3,1.8-.5,2.4-.8.7-.3,1.1-.5,1.3-.5l1,2.5c-.4.3-1.2.9-2.5,1.9-1.3.9-2.6,1.8-4.1,2.7-1.5.9-2.6,1.3-3.3,1.3-4.4,0-7.6-.9-9.4-2.7Z"/>
  <path d="M512.8,388.1c-2.9-1.8-5.1-4.4-6.7-7.7-1.6-3.3-2.4-7.1-2.4-11.3s1-8.8,3-12.6c2-3.8,4.7-6.8,8.2-9,3.5-2.2,7.3-3.3,11.6-3.3s6.9.9,9.8,2.7c2.9,1.8,5.2,4.4,6.8,7.7,1.6,3.3,2.4,7.1,2.4,11.3s-1,8.8-3,12.6c-2,3.8-4.7,6.8-8.2,9-3.5,2.2-7.3,3.3-11.6,3.3s-7-.9-9.9-2.7ZM534.2,381.6c2.2-3,3.2-7,3.2-12.1s-.6-7.3-1.8-10.3-2.8-5.4-4.9-7.1c-2.1-1.7-4.5-2.5-7.2-2.5s-6.6,1.5-8.7,4.5-3.2,7.1-3.2,12.2.6,7.3,1.8,10.3c1.2,3,2.8,5.3,4.9,7,2.1,1.7,4.5,2.5,7.2,2.5s6.6-1.5,8.7-4.5Z"/>
  <path d="M552.6,409.1c1.4-.2,2.5-.5,3.2-.9s1.2-1,1.4-2c.3-.9.4-2.3.4-4.2,0-2.7,0-5.1,0-7.1v-9.2c0,0,0-29.2,0-29.2,0-2.2-.4-3.8-1.1-4.7-.7-.9-2-1.3-3.7-1.3h-1.1l-.3-.4.3-3.2c2.8-.5,5.6-1,8.4-1.6,2.8-.6,4.6-1,5.3-1.2l.6.8c0,.3-.2,1-.4,2.1s-.4,2.1-.5,3.2l.4.7c6.1-4.2,9.9-6.4,11.4-6.4,3.7,0,7,.9,9.9,2.6,2.9,1.7,5.1,4.2,6.7,7.3,1.6,3.1,2.4,6.7,2.4,10.8s-1.1,8.9-3.3,12.8c-2.2,3.9-5.2,7-8.9,9.4-3.7,2.3-7.8,3.5-12.1,3.5s-2.9,0-4.3-.1c-1.4,0-2.4-.2-2.9-.2v10.1c0,3,.4,5,1,6.1.6,1.1,1.8,1.6,3.7,1.6h3.3c0,0,.2.2.2.2l-.8,3.7h-9.3c-2.4,0-4.5,0-6.5.3-2,.2-3.3.3-3.9.4l.5-3.8ZM584.6,381c2.5-3,3.8-7,3.8-12.2s-.6-6.2-1.7-8.9c-1.1-2.7-2.7-4.8-4.7-6.4-2-1.6-4.2-2.4-6.5-2.4s-2.9.4-4.8,1.3c-1.9.9-3.7,2-5.4,3.5-.5,8.6-.8,17.8-.8,27.6,1.3.5,2.9,1,4.7,1.3,1.8.4,3.5.5,5.1.5,4.4,0,7.8-1.5,10.3-4.5Z"/>
  <path d="M600.4,403.6v-1c2.3-1.6,4.1-3.4,5.6-5.6,1.4-2.2,2.2-4.2,2.2-6.3s-.3-2.6-.9-3.8c-.6-1.2-1.3-2.2-2.3-3.1l.2-1.4c2.2-1.7,4.1-2.5,5.7-2.5s2.6.7,3.6,2c.9,1.3,1.4,3.2,1.4,5.6s-1.4,6.6-4.1,9.6c-2.7,3-5.9,5.6-9.6,7.8l-1.8-1.5Z"/>
  <path d="M650.5,388.1c-2.9-1.8-5.1-4.4-6.7-7.7-1.6-3.3-2.4-7.1-2.4-11.3s1-8.8,3-12.6c2-3.8,4.7-6.8,8.2-9,3.5-2.2,7.3-3.3,11.6-3.3s6.9.9,9.8,2.7c2.9,1.8,5.2,4.4,6.8,7.7,1.6,3.3,2.4,7.1,2.4,11.3s-1,8.8-3,12.6c-2,3.8-4.7,6.8-8.2,9-3.5,2.2-7.3,3.3-11.6,3.3s-7-.9-9.9-2.7ZM671.9,381.6c2.2-3,3.2-7,3.2-12.1s-.6-7.3-1.8-10.3-2.8-5.4-4.9-7.1c-2.1-1.7-4.5-2.5-7.2-2.5s-6.6,1.5-8.7,4.5c-2.2,3-3.2,7.1-3.2,12.2s.6,7.3,1.8,10.3c1.2,3,2.8,5.3,4.9,7,2.1,1.7,4.5,2.5,7.2,2.5s6.6-1.5,8.7-4.5Z"/>
  <path d="M695.1,384.3c.7-1.1,1-3.1,1-6.2v-21.5c0-2.2-.3-3.7-.9-4.6-.6-.9-1.5-1.4-2.8-1.4s-1,0-1.3,0c-.4,0-.6.1-.7.2l-.5-.7.3-3c2.5-.5,5.1-1,7.9-1.7,2.8-.7,4.6-1.1,5.3-1.3l.7.6c-.1.6-.3,1.9-.6,4.1-.3,2.1-.4,4.1-.3,6l.4.3c2-3.1,4.3-5.6,6.9-7.5,2.6-2,4.9-2.9,6.9-2.9s1.6,0,2.1.1c.5,0,.8.2.9.2l.3.4c-.1.9-.4,2.9-.8,5.8-.4,3-.7,5.7-.7,8.2l-3.8.3c0-2.7-.2-4.5-.5-5.3-.4-.9-1.1-1.3-2.1-1.3s-3,.6-4.6,1.8c-1.6,1.2-3.1,2.8-4.5,4.8,0,1.9-.2,5-.4,9.4-.2,4.4-.3,7.9-.4,10.6,0,2.2.3,3.7,1,4.5s1.9,1.2,3.7,1.2,1.7,0,2.5,0c.8,0,1.4,0,1.8,0v.4c0,0-.8,4.3-.8,4.3-.7,0-2,0-3.9,0-2,0-4,0-6.1,0s-4.6,0-6.6.1-3.2.2-3.7.2l.5-3.9c2-.2,3.3-.8,3.9-1.9Z"/>
  <path d="M750.5,388.2c-1.8-1.8-2.7-4.8-2.7-9.2v-24.1c0-1.8-.4-3-1.2-3.7-.8-.7-2.3-1.1-4.4-1.2l-.4-.6.5-2.9c1.9-.9,3.7-2,5.5-3.4,1.8-1.3,3.3-2.5,4.4-3.5,1.1-1,1.9-1.7,2.2-2l2,.8c0,.3-.2,1.1-.3,2.4-.1,1.2-.3,2.9-.5,5l14.4-.3.3.3-.9,5.2-14.2-.3c-.5,7.2-.7,15.3-.7,24.5s.6,5.7,1.7,7.1c1.1,1.4,3.1,2.1,5.9,2.1s2-.1,2.9-.4c1-.3,1.8-.5,2.4-.8.7-.3,1.1-.5,1.3-.5l1,2.5c-.4.3-1.2.9-2.5,1.9-1.3.9-2.6,1.8-4.1,2.7-1.5.9-2.6,1.3-3.3,1.3-4.4,0-7.6-.9-9.4-2.7Z"/>
  <path d="M798.5,382.9h-.4c-2.4,2.3-4.5,4.1-6.4,5.5s-3.4,2.1-4.4,2.1c-3.7,0-6.7-1.1-9-3.4-2.4-2.3-3.5-5.2-3.5-8.7s.5-3.6,1.4-5c.9-1.4,2.2-2.4,3.8-2.8l18.6-5.1v-4.3c0-3.3-.7-5.8-2.2-7.6-1.5-1.8-3.6-2.7-6.4-2.7s-3.8.4-5.8,1.3c-2,.8-4,2.1-6,3.6l-.5-.3-1.2-4.2c3.1-1.8,6.2-3.3,9.3-4.8,3.1-1.4,5.3-2.1,6.7-2.1,4.2,0,7.6,1.1,10,3.3,2.4,2.2,3.6,5.3,3.6,9.3s-.2,4.4-.7,8.8c-.7,7.2-1.1,11.8-1.1,13.7s.4,2.5,1.1,3.3c.7.8,1.7,1.2,2.9,1.2s2.1-.2,3.2-.7c1.1-.5,2-1.1,2.6-1.7l1.4,1.6c-1,1.6-2.2,3.2-3.8,4.8-1.5,1.5-3.1,2.6-4.8,3.1-5.3,0-8.2-2.6-8.7-7.9ZM793.4,382.5c1.7-.9,3.2-2,4.6-3.4l.5-10-13.3,4c-1.9.6-2.8,2-2.8,4.1s.6,3.5,1.9,4.7c1.3,1.2,2.9,1.9,4.8,1.9s2.7-.4,4.4-1.3Z"/>
  <path d="M828.6,390.3c-2.8-.4-4.3-.6-4.3-.6l-.9-.8v-60.5c0-3.5-1.2-5.3-3.6-5.3s-1,0-1.4,0c-.4,0-.7.1-.8.2l-.3-.3.4-3.2c2.8-.4,5.7-.9,8.7-1.6,3-.7,4.9-1.1,5.8-1.3l.6,1.3c-.5.7-.9,4-1.3,9.9-.4,6-.7,13.6-1,22.9,2.9-2.1,5.5-3.8,7.6-5,2.1-1.2,3.5-1.9,4.3-1.9,3.7,0,6.9.9,9.8,2.6,2.9,1.8,5.1,4.2,6.7,7.4,1.6,3.2,2.4,6.8,2.4,10.9s-1.1,9-3.3,12.9c-2.2,3.9-5.1,7-8.9,9.3-3.7,2.3-7.8,3.4-12.2,3.4s-5.5-.2-8.4-.5ZM850.1,381c2.5-3,3.8-7,3.8-12.2s-.6-6.3-1.7-9c-1.1-2.7-2.7-4.9-4.7-6.5-2-1.6-4.2-2.4-6.5-2.4s-3,.5-5,1.5c-2,1-3.9,2.3-5.5,3.8l-.3,27.2c1.2.6,2.7,1.1,4.5,1.5s3.5.6,5.1.6c4.4,0,7.8-1.5,10.3-4.5Z"/>
  <path d="M866.7,386.8c1.8-.5,3.1-1.2,3.9-2,.7-.8,1.2-1.7,1.4-2.8.2-1.1.2-3,.2-5.6v-48.1c0-2-.2-3.4-.7-4.1-.5-.7-1.4-1.1-2.8-1.1s-1.1,0-2.3.2l-.3-.2.4-3.3c5.5-.8,10.3-1.7,14.5-2.8l.6,1.3c-.7,1.1-1.4,8.1-1.9,21-.6,12.9-.8,26.5-.8,40.8s.3,3.4.8,4.2c.5.8,1.4,1.3,2.6,1.3l3.4-.2.2.4-.8,4.2c-4.3-.2-7.2-.3-8.7-.3-2.2,0-5.6.4-10.1,1.2l.4-4Z"/>
  <path d="M899.6,388.2c-3.1-1.8-5.6-4.3-7.2-7.6-1.7-3.3-2.5-7.1-2.5-11.3s1-8.5,3-12.3c2-3.9,4.7-6.9,8-9.2,3.3-2.3,6.9-3.4,10.7-3.4s8.4,1.2,10.9,3.6c2.5,2.4,3.7,5.9,3.7,10.6s-.2,3.5-.6,4.8l-1.3,1.2h-27c0,6.3,1.2,11.2,3.8,14.6,2.6,3.4,6.2,5.1,10.8,5.1s7.6-1,11.9-3l.6.2,1.1,2.8c-2.4,1.7-4.9,3.2-7.8,4.6-2.8,1.4-5.2,2.1-7.2,2.1-4,0-7.6-.9-10.8-2.7ZM915.2,359.9c1-.1,1.6-.4,2-.7s.5-1,.5-2c0-2.6-.7-4.6-2.1-6-1.4-1.4-3.4-2.1-6-2.1s-5.7,1-7.9,3.1c-2.2,2.1-3.6,4.9-4.2,8.4l17.7-.9Z"/>
  <path d="M939.6,388.2c-1.8-1.8-2.7-4.8-2.7-9.2v-24.1c0-1.8-.4-3-1.2-3.7-.8-.7-2.3-1.1-4.4-1.2l-.4-.6.5-2.9c1.9-.9,3.7-2,5.5-3.4,1.8-1.3,3.3-2.5,4.4-3.5,1.1-1,1.9-1.7,2.2-2l2,.8c0,.3-.2,1.1-.3,2.4-.1,1.2-.3,2.9-.5,5l14.4-.3.3.3-.9,5.2-14.2-.3c-.5,7.2-.7,15.3-.7,24.5s.6,5.7,1.7,7.1c1.1,1.4,3.1,2.1,5.9,2.1s2-.1,2.9-.4c1-.3,1.8-.5,2.4-.8.7-.3,1.1-.5,1.3-.5l1,2.5c-.4.3-1.2.9-2.5,1.9-1.3.9-2.6,1.8-4.1,2.7-1.5.9-2.6,1.3-3.3,1.3-4.4,0-7.6-.9-9.4-2.7Z"/>
  <path d="M970.4,389.2c-.9-1.1-1.4-2.4-1.4-4s.6-3.1,1.7-4.3c1.1-1.2,2.6-1.8,4.4-1.8s3.1.5,4.1,1.6c1,1.1,1.5,2.4,1.5,4s-.6,3.1-1.7,4.3c-1.1,1.2-2.6,1.8-4.5,1.8s-3.1-.5-4.1-1.6Z"/>
</svg>